<svg xmlns="http://www.w3.org/2000/svg" xmlns:xlink="http://www.w3.org/1999/xlink" width="725" zoomAndPan="magnify" viewBox="0 0 543.75 528.750001" height="705" preserveAspectRatio="xMidYMid meet" version="1.2"><defs><clipPath id="350cedca9e"><path d="M 0.00390625 0 L 527.753906 0 L 527.753906 527.75 L 0.00390625 527.75 Z M 0.00390625 0 "/></clipPath><clipPath id="fcc0bb288c"><path d="M 531 228.191406 L 539.902344 228.191406 L 539.902344 237.121094 L 531 237.121094 Z M 531 228.191406 "/></clipPath><clipPath id="0313b5e2c2"><path d="M 539.859375 231.214844 C 538.660156 236.011719 537.984375 236.386719 537.386719 236.6875 C 536.710938 236.988281 536.035156 237.210938 535.285156 237.0625 C 534.160156 236.835938 532.363281 235.710938 531.6875 234.886719 C 531.164062 234.289062 531.011719 233.613281 531.011719 232.863281 C 531.089844 231.738281 531.761719 229.789062 532.738281 229.039062 C 533.710938 228.292969 535.8125 228.066406 536.859375 228.292969 C 537.609375 228.441406 538.734375 229.414062 538.734375 229.414062 "/></clipPath></defs><g id="9d848a3560"><path style=" stroke:none;fill-rule:nonzero;fill:#fefbf8;fill-opacity:1;" d="M 428.226562 513.074219 C 428.226562 513.074219 123.320312 513.074219 123.320312 513.074219 C 123.320312 513.074219 144.953125 59.042969 144.953125 59.042969 C 144.953125 59.042969 449.855469 59.042969 449.855469 59.042969 C 449.855469 59.042969 428.226562 513.074219 428.226562 513.074219 Z M 428.226562 513.074219 "/><path style=" stroke:none;fill-rule:nonzero;fill:#fefbf8;fill-opacity:1;" d="M 385.773438 484.847656 C 385.773438 484.847656 80.871094 484.847656 80.871094 484.847656 C 80.871094 484.847656 102.503906 30.816406 102.503906 30.816406 C 102.503906 30.816406 407.40625 30.816406 407.40625 30.816406 C 407.40625 30.816406 385.773438 484.847656 385.773438 484.847656 Z M 385.773438 484.847656 "/><path style="fill:none;stroke-width:3;stroke-linecap:round;stroke-linejoin:round;stroke:#a88bad;stroke-opacity:1;stroke-miterlimit:4;" d="M 288.941269 -433.411158 C 288.941269 -433.411158 246.557953 436.909685 246.557953 436.909685 C 246.557953 436.909685 -288.189671 436.909685 -288.189671 436.909685 " transform="matrix(0.488658,0,0,0.488658,265.290972,271.348334)"/><path style=" stroke:none;fill-rule:nonzero;fill:#a88bad;fill-opacity:1;" d="M 325.664062 192.832031 C 325.664062 192.832031 160.808594 192.832031 160.808594 192.832031 C 159.386719 192.832031 158.230469 191.675781 158.230469 190.253906 C 158.230469 188.832031 159.386719 187.675781 160.808594 187.675781 C 160.808594 187.675781 325.664062 187.675781 325.664062 187.675781 C 327.085938 187.675781 328.238281 188.832031 328.238281 190.253906 C 328.238281 191.675781 327.085938 192.832031 325.664062 192.832031 Z M 325.664062 192.832031 "/><path style=" stroke:none;fill-rule:nonzero;fill:#a88bad;fill-opacity:1;" d="M 325.664062 223.417969 C 325.664062 223.417969 160.808594 223.417969 160.808594 223.417969 C 159.386719 223.417969 158.230469 222.261719 158.230469 220.839844 C 158.230469 219.414062 159.386719 218.261719 160.808594 218.261719 C 160.808594 218.261719 325.664062 218.261719 325.664062 218.261719 C 327.085938 218.261719 328.238281 219.414062 328.238281 220.839844 C 328.238281 222.261719 327.085938 223.417969 325.664062 223.417969 Z M 325.664062 223.417969 "/><path style=" stroke:none;fill-rule:nonzero;fill:#a88bad;fill-opacity:1;" d="M 325.664062 254 C 325.664062 254 160.808594 254 160.808594 254 C 159.386719 254 158.230469 252.847656 158.230469 251.421875 C 158.230469 250 159.386719 248.847656 160.808594 248.847656 C 160.808594 248.847656 325.664062 248.847656 325.664062 248.847656 C 327.085938 248.847656 328.238281 250 328.238281 251.421875 C 328.238281 252.847656 327.085938 254 325.664062 254 Z M 325.664062 254 "/><path style=" stroke:none;fill-rule:nonzero;fill:#a88bad;fill-opacity:1;" d="M 325.664062 284.585938 C 325.664062 284.585938 160.808594 284.585938 160.808594 284.585938 C 159.386719 284.585938 158.230469 283.433594 158.230469 282.007812 C 158.230469 280.585938 159.386719 279.429688 160.808594 279.429688 C 160.808594 279.429688 325.664062 279.429688 325.664062 279.429688 C 327.085938 279.429688 328.238281 280.585938 328.238281 282.007812 C 328.238281 283.433594 327.085938 284.585938 325.664062 284.585938 Z M 325.664062 284.585938 "/><path style=" stroke:none;fill-rule:nonzero;fill:#a88bad;fill-opacity:1;" d="M 325.664062 315.171875 C 325.664062 315.171875 160.808594 315.171875 160.808594 315.171875 C 159.386719 315.171875 158.230469 314.015625 158.230469 312.59375 C 158.230469 311.167969 159.386719 310.015625 160.808594 310.015625 C 160.808594 310.015625 325.664062 310.015625 325.664062 310.015625 C 327.085938 310.015625 328.238281 311.167969 328.238281 312.59375 C 328.238281 314.015625 327.085938 315.171875 325.664062 315.171875 Z M 325.664062 315.171875 "/><path style=" stroke:none;fill-rule:nonzero;fill:#a88bad;fill-opacity:1;" d="M 325.664062 345.753906 C 325.664062 345.753906 160.808594 345.753906 160.808594 345.753906 C 159.386719 345.753906 158.230469 344.601562 158.230469 343.179688 C 158.230469 341.753906 159.386719 340.601562 160.808594 340.601562 C 160.808594 340.601562 325.664062 340.601562 325.664062 340.601562 C 327.085938 340.601562 328.238281 341.753906 328.238281 343.179688 C 328.238281 344.601562 327.085938 345.753906 325.664062 345.753906 Z M 325.664062 345.753906 "/><path style=" stroke:none;fill-rule:nonzero;fill:#a88bad;fill-opacity:1;" d="M 205.160156 434.761719 C 205.160156 434.761719 122.269531 434.761719 122.269531 434.761719 C 120.847656 434.761719 119.691406 433.605469 119.691406 432.183594 C 119.691406 430.757812 120.847656 429.605469 122.269531 429.605469 C 122.269531 429.605469 205.160156 429.605469 205.160156 429.605469 C 206.582031 429.605469 207.734375 430.757812 207.734375 432.183594 C 207.734375 433.605469 206.582031 434.761719 205.160156 434.761719 Z M 205.160156 434.761719 "/><path style=" stroke:none;fill-rule:nonzero;fill:#a88bad;fill-opacity:1;" d="M 350.179688 434.761719 C 350.179688 434.761719 267.289062 434.761719 267.289062 434.761719 C 265.867188 434.761719 264.710938 433.605469 264.710938 432.183594 C 264.710938 430.757812 265.867188 429.605469 267.289062 429.605469 C 267.289062 429.605469 350.179688 429.605469 350.179688 429.605469 C 351.601562 429.605469 352.753906 430.757812 352.753906 432.183594 C 352.753906 433.605469 351.601562 434.761719 350.179688 434.761719 Z M 350.179688 434.761719 "/><path style=" stroke:none;fill-rule:nonzero;fill:#f4c2c2;fill-opacity:1;" d="M 319.414062 131.835938 C 319.414062 131.835938 179.492188 131.835938 179.492188 131.835938 C 174.984375 131.835938 171.417969 128.007812 171.742188 123.507812 C 171.742188 123.507812 173.191406 103.308594 173.191406 103.308594 C 173.480469 99.242188 176.863281 96.09375 180.941406 96.09375 C 180.941406 96.09375 320.863281 96.09375 320.863281 96.09375 C 325.371094 96.09375 328.933594 99.921875 328.609375 104.417969 C 328.609375 104.417969 327.164062 124.621094 327.164062 124.621094 C 326.871094 128.683594 323.488281 131.835938 319.414062 131.835938 Z M 319.414062 131.835938 "/><path style=" stroke:none;fill-rule:nonzero;fill:#d2aab4;fill-opacity:1;" d="M 328.375 384.074219 C 328.375 384.074219 300.769531 360.601562 300.769531 360.601562 C 300.769531 360.601562 476.804688 153.550781 476.804688 153.550781 C 483.285156 145.925781 494.71875 145 502.34375 151.480469 C 509.964844 157.964844 510.890625 169.398438 504.410156 177.019531 C 504.410156 177.019531 328.375 384.074219 328.375 384.074219 Z M 328.375 384.074219 "/><path style=" stroke:none;fill-rule:nonzero;fill:#d2aab4;fill-opacity:1;" d="M 459.773438 245.808594 C 459.773438 245.808594 451.738281 238.976562 451.738281 238.976562 C 451.738281 238.976562 478.679688 207.285156 478.679688 207.285156 C 478.679688 207.285156 486.714844 214.117188 486.714844 214.117188 C 486.714844 214.117188 459.773438 245.808594 459.773438 245.808594 Z M 459.773438 245.808594 "/><path style=" stroke:none;fill-rule:nonzero;fill:#d2aab4;fill-opacity:1;" d="M 438.46875 284.523438 C 438.46875 284.523438 431.730469 278.792969 431.730469 278.792969 C 431.730469 278.792969 500.710938 197.65625 500.710938 197.65625 C 500.710938 197.65625 507.449219 203.386719 507.449219 203.386719 C 507.449219 203.386719 438.46875 284.523438 438.46875 284.523438 Z M 438.46875 284.523438 "/><path style=" stroke:none;fill-rule:nonzero;fill:#d2aab4;fill-opacity:1;" d="M 284.222656 410.4375 C 284.222656 410.4375 328.597656 383.8125 328.597656 383.8125 C 328.597656 383.8125 300.917969 360.28125 300.917969 360.28125 C 300.917969 360.28125 281.78125 408.363281 281.78125 408.363281 C 281.183594 409.863281 282.835938 411.269531 284.222656 410.4375 Z M 284.222656 410.4375 "/><path style="fill:none;stroke-width:3.145;stroke-linecap:round;stroke-linejoin:round;stroke:#a88bad;stroke-opacity:1;stroke-miterlimit:4;" d="M -32.395447 -18.23427 C -32.395447 -18.23427 32.396537 18.22761 32.396537 18.22761 " transform="matrix(0.47968,0.0932403,-0.0932403,0.47968,314.757241,372.048422)"/><path style="fill:none;stroke-width:3;stroke-linecap:round;stroke-linejoin:round;stroke:#a88bad;stroke-opacity:1;stroke-miterlimit:4;" d="M -32.310639 -18.182076 C -32.310639 -18.182076 32.307847 18.183233 32.307847 18.183233 " transform="matrix(0.47968,0.0932403,-0.0932403,0.47968,432.295645,233.870946)"/><path style="fill:none;stroke-width:3;stroke-linecap:round;stroke-linejoin:round;stroke:#a88bad;stroke-opacity:1;stroke-miterlimit:4;" d="M -32.314386 -18.182462 C -32.314386 -18.182462 32.311947 18.181322 32.311947 18.181322 " transform="matrix(0.47968,0.0932403,-0.0932403,0.47968,471.965375,187.211325)"/><path style=" stroke:none;fill-rule:nonzero;fill:#f4c2c2;fill-opacity:1;" d="M 57.019531 102.539062 C 57.019531 102.539062 57.179688 102.996094 57.179688 102.996094 C 59.140625 108.523438 63.488281 112.871094 69.015625 114.832031 C 69.015625 114.832031 69.476562 114.996094 69.476562 114.996094 C 69.476562 114.996094 69.015625 115.15625 69.015625 115.15625 C 63.488281 117.117188 59.140625 121.464844 57.179688 126.992188 C 57.179688 126.992188 57.019531 127.453125 57.019531 127.453125 C 57.019531 127.453125 56.855469 126.992188 56.855469 126.992188 C 54.894531 121.464844 50.546875 117.117188 45.019531 115.15625 C 45.019531 115.15625 44.5625 114.996094 44.5625 114.996094 C 44.5625 114.996094 45.019531 114.832031 45.019531 114.832031 C 50.546875 112.871094 54.894531 108.523438 56.855469 102.996094 C 56.855469 102.996094 57.019531 102.539062 57.019531 102.539062 Z M 57.019531 102.539062 "/><path style=" stroke:none;fill-rule:nonzero;fill:#f4c2c2;fill-opacity:1;" d="M 478.867188 344.765625 C 478.867188 344.765625 479.027344 345.222656 479.027344 345.222656 C 480.988281 350.75 485.335938 355.097656 490.863281 357.058594 C 490.863281 357.058594 491.320312 357.222656 491.320312 357.222656 C 491.320312 357.222656 490.863281 357.382812 490.863281 357.382812 C 485.335938 359.34375 480.988281 363.691406 479.027344 369.21875 C 479.027344 369.21875 478.867188 369.675781 478.867188 369.675781 C 478.867188 369.675781 478.703125 369.21875 478.703125 369.21875 C 476.742188 363.691406 472.394531 359.34375 466.867188 357.382812 C 466.867188 357.382812 466.410156 357.222656 466.410156 357.222656 C 466.410156 357.222656 466.867188 357.058594 466.867188 357.058594 C 472.394531 355.097656 476.742188 350.75 478.703125 345.222656 C 478.703125 345.222656 478.867188 344.765625 478.867188 344.765625 Z M 478.867188 344.765625 "/><path style=" stroke:none;fill-rule:nonzero;fill:#d2aab4;fill-opacity:1;" d="M 23.59375 354.273438 C 23.59375 354.273438 23.84375 354.976562 23.84375 354.976562 C 26.859375 363.476562 33.546875 370.167969 42.050781 373.183594 C 42.050781 373.183594 42.753906 373.433594 42.753906 373.433594 C 42.753906 373.433594 42.050781 373.683594 42.050781 373.683594 C 33.546875 376.699219 26.859375 383.386719 23.84375 391.890625 C 23.84375 391.890625 23.59375 392.59375 23.59375 392.59375 C 23.59375 392.59375 23.34375 391.890625 23.34375 391.890625 C 20.328125 383.386719 13.636719 376.699219 5.136719 373.683594 C 5.136719 373.683594 4.429688 373.433594 4.429688 373.433594 C 4.429688 373.433594 5.136719 373.183594 5.136719 373.183594 C 13.636719 370.167969 20.328125 363.476562 23.34375 354.976562 C 23.34375 354.976562 23.59375 354.273438 23.59375 354.273438 Z M 23.59375 354.273438 "/><path style=" stroke:none;fill-rule:nonzero;fill:#d2aab4;fill-opacity:1;" d="M 491.320312 38.84375 C 491.320312 38.84375 491.570312 39.546875 491.570312 39.546875 C 494.585938 48.050781 501.277344 54.738281 509.777344 57.753906 C 509.777344 57.753906 510.484375 58.003906 510.484375 58.003906 C 510.484375 58.003906 509.777344 58.253906 509.777344 58.253906 C 501.277344 61.269531 494.585938 67.957031 491.570312 76.460938 C 491.570312 76.460938 491.320312 77.164062 491.320312 77.164062 C 491.320312 77.164062 491.074219 76.460938 491.074219 76.460938 C 488.058594 67.957031 481.367188 61.269531 472.867188 58.253906 C 472.867188 58.253906 472.160156 58.003906 472.160156 58.003906 C 472.160156 58.003906 472.867188 57.753906 472.867188 57.753906 C 481.367188 54.738281 488.058594 48.050781 491.074219 39.546875 C 491.074219 39.546875 491.320312 38.84375 491.320312 38.84375 Z M 491.320312 38.84375 "/><g clip-rule="nonzero" clip-path="url(#350cedca9e)"><path style="fill:none;stroke-width:67.865997;stroke-linecap:butt;stroke-linejoin:miter;stroke:#f4c2c2;stroke-opacity:1;stroke-miterlimit:10;" d="M 114.784241 72.94774 C 74.503304 136.346849 -9.551876 155.076406 -72.950985 114.787475 C -136.3421 74.498544 -155.071656 -9.548642 -114.79072 -72.947751 C -74.501789 -136.34686 9.553391 -155.076417 72.944507 -114.787486 C 136.343616 -74.498555 155.073172 9.548631 114.784241 72.94774 Z M 114.784241 72.94774 " transform="matrix(0.488658,0,0,0.488658,135.612911,320.646487)"/></g><path style="fill:none;stroke-width:67.865997;stroke-linecap:round;stroke-linejoin:round;stroke:#f4c2c2;stroke-opacity:1;stroke-miterlimit:4;" d="M 55.660573 -87.588092 C 55.660573 -87.588092 -55.661579 87.588819 -55.661579 87.588819 " transform="matrix(0.488658,0,0,0.488658,71.761965,421.120916)"/><path style="fill:none;stroke-width:3;stroke-linecap:round;stroke-linejoin:round;stroke:#a88bad;stroke-opacity:1;stroke-miterlimit:4;" d="M -27.805206 -17.671064 C -27.805206 -17.671064 27.807908 17.669682 27.807908 17.669682 " transform="matrix(0.488658,0,0,0.488658,60.450512,438.92026)"/><g clip-rule="nonzero" clip-path="url(#fcc0bb288c)"><g clip-rule="nonzero" clip-path="url(#0313b5e2c2)"><path style=" stroke:none;fill-rule:nonzero;fill:#ffffff;fill-opacity:1;" d="M 528.015625 225.292969 L 542.859375 225.292969 L 542.859375 240.136719 L 528.015625 240.136719 Z M 528.015625 225.292969 "/></g></g></g></svg>